<svg width="400" height="267" viewBox="0 0 400 267" fill="none" xmlns="http://www.w3.org/2000/svg">
<g clip-path="url(#clip0_1251_8071)">
<path d="M82.8455 95.6325C93.1111 127.33 121.026 181.18 130.932 187.663C139.757 193.426 181.18 186.943 199.37 182.62C206.213 180.999 190.905 129.311 183.701 131.292C175.056 133.633 149.302 139.397 147.321 137.956C145.16 136.335 119.406 104.457 101.035 85.547C84.2863 68.4376 79.0634 83.746 82.8455 95.6325Z" fill="#D3766A"/>
<path d="M195.407 182.981C198.829 182.62 228.366 181.18 241.873 173.796C249.077 169.833 267.447 157.046 265.646 152.364C264.025 148.041 258.082 150.383 258.082 150.383C258.082 150.383 266.186 144.44 263.845 138.676C261.504 132.733 251.598 137.236 251.598 137.236C251.598 137.236 259.523 130.572 256.641 124.989C253.76 119.226 244.755 125.349 244.755 125.349C244.755 125.349 252.319 119.586 247.996 115.804C242.774 111.301 230.167 123.548 221.702 126.43C219.721 127.15 181.36 136.695 181.36 136.695L195.407 182.981Z" fill="#D3766A"/>
<path d="M244.394 125.169C235.029 134.174 229.446 136.335 217.019 138.857C216.839 138.857 216.839 139.217 217.019 139.217C229.446 137.776 236.83 135.975 244.935 125.529C245.295 124.989 244.755 124.629 244.394 125.169Z" fill="#4C5366"/>
<path d="M251.238 137.056C240.793 145.52 234.669 148.042 221.882 151.644C221.702 151.644 221.702 152.004 221.882 152.004C234.849 149.482 242.233 147.501 251.598 137.776C251.959 137.236 251.598 136.695 251.238 137.056Z" fill="#4C5366"/>
<path d="M257.362 150.563C246.556 157.947 240.072 161.009 227.105 162.99C226.745 162.99 226.925 163.53 227.105 163.53C240.432 162.81 248.717 159.028 257.542 151.103C258.082 150.383 258.082 150.203 257.362 150.563Z" fill="#4C5366"/>
<path d="M171.274 138.316C171.274 138.316 181.9 126.25 187.843 121.927C193.787 117.605 221.522 109.68 223.503 115.624C226.204 123.188 211.076 130.932 203.152 133.814C203.152 133.814 209.275 151.463 199.55 159.388C190.004 167.312 171.274 138.316 171.274 138.316Z" fill="#D3766A"/>
<path d="M223.683 117.965C221.162 126.61 210.536 129.671 202.972 132.913C202.431 133.093 202.431 133.633 202.611 134.174C204.773 141.738 205.493 153.084 200.09 159.388C199.91 159.568 200.09 159.748 200.27 159.568C206.934 153.444 207.114 142.458 204.232 134.174C212.157 131.112 222.602 127.69 223.683 117.965Z" fill="#4C5366"/>
<path d="M195.407 191.985L181.9 130.211L148.221 136.335C134.894 121.206 108.42 90.7697 97.7937 81.7648C85.1868 71.1389 76.9022 79.0633 81.5848 95.2722C92.2107 132.373 122.827 186.582 130.932 191.805C142.458 199.009 195.407 191.985 195.407 191.985Z" fill="#858CA0"/>
<path opacity="0.1" d="M147.321 154.885C148.942 155.425 150.743 155.245 152.364 155.425C155.966 155.966 157.587 161.189 154.345 163.17C150.743 165.331 146.601 165.691 142.819 164.25C139.217 162.809 136.155 159.388 136.875 155.245C137.596 151.643 141.198 150.743 144.079 152.544C145.16 153.444 146.06 154.525 147.321 154.885ZM138.136 140.297C136.875 146.42 146.24 151.643 151.103 148.401C152.904 147.321 152.724 144.619 151.283 143.359C149.842 142.278 148.762 142.098 147.501 141.017C146.961 140.477 146.961 140.657 146.421 139.757C145.52 138.676 144.98 137.956 143.719 137.415C141.198 135.975 138.676 137.956 138.136 140.297ZM123.008 140.657C121.027 143.179 122.467 146.961 124.268 149.302C125.889 151.643 128.411 153.084 131.292 152.724C133.453 152.544 134.354 149.482 132.553 148.041C131.472 147.141 130.572 146.06 130.032 144.98C129.131 142.999 128.591 140.657 126.43 139.757C125.349 139.216 123.908 139.577 123.008 140.657ZM162.81 180.639C160.288 185.862 168.032 191.625 172.715 190.545C174.336 190.184 175.777 188.203 174.336 186.763C173.255 185.502 171.814 184.601 170.914 183.341C169.653 181.72 168.933 179.919 166.952 179.018C165.331 178.478 163.71 179.018 162.81 180.639ZM90.4097 117.605C90.0495 116.704 89.3291 115.984 88.6087 115.443C89.6893 117.965 90.7699 120.666 91.8505 123.188C92.0306 121.387 91.1301 119.225 90.4097 117.605ZM100.315 112.202C100.135 107.699 97.9739 103.557 95.2724 100.135C93.1112 97.4335 89.3291 92.931 85.367 93.8315C84.4665 94.0116 83.9262 94.9121 83.9262 95.8126C83.7461 98.8743 87.1679 102.116 88.6087 104.637C90.5898 107.699 91.8505 111.121 93.8316 114.183C95.8127 117.064 100.495 115.804 100.315 112.202ZM99.2346 131.652C100.675 131.472 101.936 130.572 102.296 129.131C102.656 127.69 102.476 126.249 101.936 124.989C101.576 123.908 101.036 122.287 100.135 121.567C98.6943 120.486 96.353 120.846 95.9928 122.827C95.8127 123.908 95.9928 124.989 95.9928 126.069C95.9928 126.61 95.9928 126.97 95.9928 127.51C95.9928 128.23 96.1729 128.771 96.1729 129.491C96.1729 130.752 97.9739 131.652 99.2346 131.652Z" fill="#2A3147"/>
<path d="M183.701 186.402C182.08 182.8 178.298 166.772 177.398 162.809C176.497 159.027 173.435 142.818 172.535 138.676C172.535 138.496 172.715 138.316 172.895 138.496C173.796 142.458 178.298 158.487 179.199 162.449C180.099 166.411 183.701 182.44 184.061 186.402C183.881 186.582 183.701 186.582 183.701 186.402Z" fill="#4C5366"/>
<path opacity="0.1" d="M152.364 195.047C142.999 195.047 134.534 194.146 130.752 191.625C122.647 186.402 92.0306 132.192 81.4047 95.092C78.7033 85.7269 80.3242 79.2433 84.4664 77.2622L152.364 195.047Z" fill="black"/>
<path d="M-4.96038e-05 207.654C0.180049 208.014 112.562 222.422 113.823 221.342C114.183 220.981 115.263 211.796 115.263 211.796C115.263 211.796 104.998 89.509 99.5947 82.3051C94.9121 76.0016 80.8644 71.4991 71.1391 75.6414C50.968 84.2862 2.52134 193.606 3.06163 198.109C2.88154 197.929 -0.180149 207.114 -4.96038e-05 207.654Z" fill="#858CA0"/>
<path opacity="0.1" d="M40.5222 192.706C42.1431 193.787 44.1242 193.967 45.9252 194.687C49.7072 196.128 50.0674 202.431 45.9252 203.692C41.4227 205.133 36.7401 204.412 32.958 201.711C29.3561 199.189 27.0148 194.507 28.9959 190.365C30.6167 186.583 34.9391 186.583 37.6406 189.284C38.5411 190.365 39.2615 191.805 40.5222 192.706ZM34.3988 174.156C31.3371 180.459 40.162 188.744 46.4655 186.583C48.6267 185.862 49.347 182.8 47.9063 180.999C46.6456 179.379 45.3849 178.838 44.3043 177.398C43.764 176.677 43.9441 176.857 43.4038 175.777C42.8635 174.516 42.1431 173.435 41.0625 172.355C38.9013 170.194 35.4794 171.814 34.3988 174.156ZM23.9531 167.312C20.5312 168.573 19.6307 173.075 19.9909 176.317C20.171 179.559 21.7919 182.44 24.6735 183.881C26.8347 184.962 29.5362 182.62 28.6357 180.279C28.0954 178.838 27.9153 177.217 28.0954 175.777C28.4556 173.435 29.3561 170.734 27.7352 168.753C27.0148 167.492 25.3939 166.772 23.9531 167.312ZM60.8734 188.744C59.0724 188.564 57.4515 189.824 57.2714 191.625C57.0913 193.606 58.352 195.227 60.153 195.768C61.4137 196.128 62.6744 196.128 63.9351 195.768C64.4754 195.588 65.0157 195.047 65.3759 194.507C65.7361 193.967 65.9162 193.246 65.7361 192.526C65.556 191.265 64.4754 190.185 63.2147 190.004C63.0346 189.824 63.0346 189.824 62.8545 189.644C62.3142 189.104 61.5938 188.744 60.8734 188.744ZM33.3182 145.34C30.2566 148.402 31.5172 155.425 34.9391 157.767C36.9202 159.207 39.8018 158.127 39.9819 155.606C40.162 154.705 39.9819 154.345 39.9819 153.444C39.9819 152.724 39.8018 152.184 39.9819 151.643C39.9819 150.203 40.5222 148.402 40.162 146.961C39.4416 143.719 35.6595 142.818 33.3182 145.34ZM13.6874 190.004C9.54516 194.867 16.3889 203.332 21.7919 203.512C23.5929 203.512 25.7541 201.711 24.6735 199.73C23.773 198.109 22.5123 196.668 21.7919 195.047C20.8914 193.066 20.5312 190.725 18.5501 189.284C17.1093 188.384 14.9481 188.564 13.6874 190.004ZM113.102 188.384C111.841 188.564 110.761 189.464 110.221 190.905C109.68 192.886 109.5 194.687 108.059 196.308C106.619 197.929 104.818 198.829 103.557 200.81C102.656 202.431 104.097 204.953 105.898 204.592C108.96 204.232 111.841 202.611 114.003 200.27C113.823 196.848 113.462 192.886 113.102 188.384ZM104.097 173.615C103.017 176.137 103.197 178.838 102.476 181.36C101.756 183.701 100.855 186.042 99.7748 188.203C99.0544 189.824 100.495 192.346 102.476 191.445C105.718 190.004 108.239 188.023 109.86 184.782C111.301 181.9 112.742 177.217 111.481 174.156C110.04 171.454 105.538 170.013 104.097 173.615ZM93.8315 198.109C92.2106 199.91 90.4096 201.711 88.2484 202.791C86.0873 203.692 84.8266 205.853 85.9072 208.014C86.9878 210.356 89.329 210.716 91.4902 209.635C95.2723 207.834 98.1539 204.953 99.2345 200.81C99.9549 197.929 95.8126 195.948 93.8315 198.109ZM77.2624 109.86C79.4236 110.221 81.4047 109.14 81.945 106.979C83.0256 103.017 79.4236 99.0544 76.7221 96.7131C73.8405 94.1917 70.0584 92.0305 66.2764 93.2912C63.9351 94.0116 63.5749 96.7131 65.0157 98.5141C66.6366 100.675 68.9778 102.116 70.7788 104.097C72.7599 106.438 74.2007 109.32 77.2624 109.86ZM91.13 125.169C92.5708 123.008 91.4902 119.766 90.4096 117.785C89.8693 116.704 88.9688 115.624 87.8882 115.083C86.4475 114.183 84.1062 114.363 83.2057 115.984C82.6654 117.064 82.6654 118.145 83.0256 119.225C83.2057 119.766 83.3858 120.306 83.5659 120.846V121.026C83.5659 121.026 83.5659 121.027 83.5659 121.207C84.1062 122.827 84.4664 124.809 85.7271 126.069C87.528 127.69 89.8693 126.97 91.13 125.169ZM100.315 112.202C100.135 107.699 97.9738 103.557 95.2723 100.135C93.1111 97.4335 89.329 92.931 85.3669 93.8315C84.4664 94.0116 83.9261 94.9121 83.9261 95.8126C83.746 98.8743 87.1679 102.116 88.6086 104.637C90.5897 107.699 91.8504 111.121 93.8315 114.183C95.8126 117.064 100.495 115.804 100.315 112.202ZM86.8077 143.179C87.5281 143.359 88.2484 143.359 88.7887 143.179C89.8693 142.999 90.5897 142.098 91.13 141.198C91.6703 140.297 91.8504 139.036 91.8504 138.136C91.8504 137.055 91.4902 136.155 90.9499 135.254C90.7698 135.074 90.5897 134.714 90.4096 134.534C90.2295 134.354 89.8693 134.174 89.6892 133.994C88.9688 133.633 88.2484 133.453 87.348 133.633C85.9072 133.814 84.6465 134.894 84.2863 136.335C84.1062 137.416 83.746 138.496 83.746 139.577C83.746 139.937 83.9261 140.297 83.9261 140.657C84.1062 141.198 84.2863 141.558 84.6465 141.918C85.1868 142.278 85.9072 142.999 86.8077 143.179ZM99.2345 131.652C100.675 131.472 101.936 130.572 102.296 129.131C102.656 127.69 102.476 126.249 101.936 124.989C101.576 123.908 101.035 122.287 100.135 121.567C98.6942 120.486 96.3529 120.846 95.9927 122.827C95.8126 123.908 95.9927 124.989 95.9927 126.069C95.9927 126.61 95.9927 126.97 95.9927 127.51C95.9927 128.23 96.1728 128.771 96.1728 129.491C96.1728 130.752 97.9738 131.652 99.2345 131.652Z" fill="#2A3147"/>
<path d="M92.9311 101.396C86.0873 100.856 77.2625 86.0876 75.6416 76.7224C75.4615 76.002 78.3431 70.5991 81.2246 63.9354C83.0256 59.7931 85.0067 55.2906 86.4475 50.9683L111.481 66.6369C111.481 66.6369 105.718 74.7413 103.377 82.3055C103.197 83.0259 103.017 83.5662 103.017 84.1065C103.017 84.1065 103.017 84.2866 103.017 84.4667C102.116 88.0687 99.5947 102.116 92.9311 101.396Z" fill="#D3766A"/>
<path d="M102.837 84.2866C102.837 84.2866 102.837 84.4667 102.837 84.6468C101.936 84.4667 101.036 84.2866 99.955 83.9264C84.2863 78.3434 87.1679 57.8121 88.2485 52.229L94.552 56.1912L111.481 66.817C111.481 66.817 105.718 74.9215 103.377 82.4856C103.017 83.0259 102.837 83.7463 102.837 84.2866Z" fill="#4C5366"/>
<path d="M89.1489 22.1523C83.9261 31.5174 83.0256 61.2338 88.7887 69.1581C97.0733 80.6845 113.642 85.0068 124.088 74.381C134.354 64.1154 134.714 25.214 128.05 17.8299C118.325 6.66377 96.7131 8.46476 89.1489 22.1523Z" fill="#D3766A"/>
<path d="M112.922 46.2856C112.922 46.1055 112.922 46.2856 112.922 46.2856C112.742 48.4468 112.382 50.7881 110.581 51.5085V51.6886C112.922 51.3284 113.282 48.0866 112.922 46.2856Z" fill="#4C5366"/>
<path d="M111.301 43.9443C108.059 43.5841 107.519 50.2477 110.581 50.4278C113.462 50.9681 114.003 44.3045 111.301 43.9443Z" fill="#4C5366"/>
<path d="M124.809 47.0063L124.989 47.1864C124.809 49.1675 124.809 51.5088 126.61 52.4093V52.5894C124.268 52.0491 124.268 48.8073 124.809 47.0063Z" fill="#4C5366"/>
<path d="M126.79 45.0251C130.032 45.0251 129.851 51.6887 126.79 51.6887C123.728 51.5086 124.088 44.845 126.79 45.0251Z" fill="#4C5366"/>
<path d="M114.003 42.6837C113.102 42.8638 112.202 42.8638 111.301 43.0439C110.221 43.224 109.5 43.4041 108.42 42.8638C107.879 42.5036 107.699 41.7832 107.879 41.2429C108.42 39.9822 109.68 39.622 110.941 39.4419C112.202 39.2618 113.462 39.4419 114.543 40.1623C115.624 40.7026 115.083 42.5036 114.003 42.6837Z" fill="#4C5366"/>
<path d="M129.851 38.7215C128.951 38.5414 128.231 38.1812 127.33 37.821C126.43 37.4608 125.529 37.2807 124.809 36.3802C124.448 35.8399 124.629 35.1195 124.989 34.7593C125.889 33.8588 127.33 34.0389 128.411 34.3991C129.671 34.7593 130.572 35.4797 131.292 36.5603C132.193 37.6409 130.932 39.0817 129.851 38.7215Z" fill="#4C5366"/>
<path d="M111.481 62.4946C114.183 61.5941 117.424 62.1344 119.586 62.6747C119.766 62.6747 120.126 62.1344 120.126 61.9543L120.306 57.6319C120.846 57.9921 123.728 59.4329 123.728 58.7125C123.728 51.8688 123.908 44.4847 122.467 37.6409C122.467 37.4608 122.107 37.4608 122.107 37.6409C121.747 44.1245 122.647 50.6081 122.467 57.0916C121.567 56.7314 120.126 56.011 119.225 55.8309C119.045 55.8309 119.225 60.3334 119.225 61.0538C119.225 61.0538 115.263 59.613 111.661 61.414C110.581 62.1344 110.221 62.8548 111.481 62.4946Z" fill="#4C5366"/>
<path d="M106.258 66.817C106.799 67.3573 107.159 68.0777 107.879 68.0777C108.6 68.2578 109.5 67.8976 110.04 67.7175C110.04 67.7175 110.221 67.7175 110.04 67.8976C109.5 68.618 108.42 68.9782 107.339 68.7981C106.438 68.618 106.078 67.7175 105.898 66.9971C105.898 66.6369 106.078 66.6369 106.258 66.817Z" fill="#4C5366"/>
<path opacity="0.2" d="M97.7937 12.6069C97.6136 17.2895 96.3529 31.5173 94.1917 34.579C92.0305 37.4606 87.1678 44.3044 84.8265 45.385C85.1867 35.8397 86.6275 26.6547 89.1489 21.9721C91.13 18.0099 94.1917 14.9482 97.7937 12.6069Z" fill="#4C5366"/>
<path d="M123.368 26.6545C120.846 29.1758 117.064 30.4365 113.462 29.536C110.04 28.6355 106.619 26.1142 105.718 22.5122C105.718 22.3321 105.538 22.5122 105.538 22.5122C106.619 26.2943 109.32 29.536 113.282 30.2564C116.884 30.9768 121.026 29.536 123.548 26.6545C123.728 26.8346 123.548 26.6545 123.368 26.6545Z" fill="#4C5366"/>
<path d="M114.363 6.83089e-06C108.239 -0.360191 102.476 2.70149 99.9548 6.66367C98.3339 9.00496 97.9737 11.7064 98.3339 14.2278C98.3339 14.4079 98.514 14.4079 98.514 14.2278C98.514 10.0856 100.855 5.58308 105.358 2.88159C109.86 0.360205 115.443 6.88456e-06 120.306 2.1612C122.827 3.24179 124.809 5.04278 125.709 7.02387C125.709 7.38407 126.249 7.38407 126.069 7.20397C124.809 3.24179 119.946 0.360205 114.363 6.83089e-06Z" fill="#4C5366"/>
<path d="M148.762 15.6687C148.041 12.607 146.06 9.90554 143.539 8.10455C139.937 5.58317 135.795 5.58317 131.472 5.76327C131.292 5.76327 131.292 5.94337 131.472 5.94337C135.074 5.76327 138.676 5.94337 141.918 7.92446C144.439 9.54535 146.601 11.8866 147.501 14.7682C149.482 20.7115 146.781 27.7353 141.017 30.4368C137.776 31.8776 133.994 32.0577 130.572 30.797C130.392 30.797 130.392 30.9771 130.392 30.9771C136.335 33.6786 143.899 31.3373 147.141 25.5742C148.942 22.3324 149.662 18.9105 148.762 15.6687Z" fill="#4C5366"/>
<path d="M87.3479 27.9153C87.3479 27.9153 82.3051 16.5691 87.7081 10.6258C90.7698 7.20393 99.7748 8.46462 99.7748 8.46462C99.7748 8.46462 103.017 3.42185 110.761 2.34125C118.505 1.26066 127.15 6.30343 127.15 6.30343C127.15 6.30343 134.714 2.70145 141.198 7.02383C150.202 13.1472 148.041 27.375 138.136 31.3372C131.292 34.0387 122.647 27.5551 122.647 27.5551C121.747 27.5551 112.382 32.2377 106.258 23.773C106.258 23.773 100.495 28.2755 95.8126 24.4934C95.6325 24.4934 92.7509 29.176 87.3479 27.9153Z" fill="#4C5366"/>
<path d="M90.2296 46.8255C90.2296 46.8255 85.547 36.1997 80.8644 37.8206C76.1818 39.2614 78.5231 53.8494 83.0256 56.5509C87.7082 59.4325 90.2296 55.1101 90.2296 55.1101V46.8255Z" fill="#D3766A"/>
<path d="M81.5848 41.9629C81.5848 41.7828 81.4047 41.9629 81.5848 41.9629C84.8266 44.124 85.9072 47.726 86.6276 51.328C85.9072 49.8872 84.6465 48.8066 82.6654 49.7071C82.4853 49.7071 82.6654 49.8872 82.6654 49.8872C84.1062 49.8872 85.1868 50.2474 85.9072 51.6882C86.4475 52.5887 86.6276 53.6693 86.9878 54.7499C87.1679 55.1101 87.7082 55.1101 87.7082 54.5698C88.4286 50.0673 86.2674 43.2236 81.5848 41.9629Z" fill="#4C5366"/>
<path d="M339.921 67.8157L146.012 127.213L180.986 241.389L374.895 181.991L339.921 67.8157Z" fill="#858CA0"/>
<path opacity="0.2" d="M339.921 67.8157L146.012 127.213L180.986 241.389L374.895 181.991L339.921 67.8157Z" fill="black"/>
<path opacity="0.2" d="M339.787 67.754L274.691 87.6938L309.665 201.87L374.761 181.93L339.787 67.754Z" fill="black"/>
<path d="M336.785 73.6602C334.624 83.7457 332.463 93.8312 330.301 103.917L324.178 134.354L318.235 164.79C316.254 174.876 314.453 185.141 312.472 195.227C314.633 185.141 316.794 175.056 318.955 164.97L325.079 134.534L331.022 104.097C333.003 94.0113 334.804 83.7457 336.785 73.6602Z" fill="#858CA0"/>
<path d="M368.663 178.118C361.459 170.733 354.075 163.349 346.871 155.965L324.899 133.993L302.746 112.201C295.362 104.997 287.978 97.7933 280.414 90.5894C287.618 97.9734 294.822 105.357 302.206 112.742L324.178 134.714L346.33 156.506C353.894 163.71 361.279 170.914 368.663 178.118Z" fill="#858CA0"/>
<path d="M183.31 141.795L184.344 141.479L179.756 126.497L178.722 126.813L183.31 141.795Z" fill="#4C5366"/>
<path d="M180.759 142.662L181.792 142.345L177.203 127.364L176.17 127.681L180.759 142.662Z" fill="#4C5366"/>
<path d="M178.184 143.502L179.218 143.186L174.63 128.203L173.597 128.52L178.184 143.502Z" fill="#4C5366"/>
<path d="M175.567 144.187L176.6 143.871L172.012 128.889L170.979 129.205L175.567 144.187Z" fill="#4C5366"/>
<path d="M173.022 145.034L174.056 144.718L169.466 129.737L168.433 130.054L173.022 145.034Z" fill="#4C5366"/>
<path d="M170.461 145.882L171.494 145.566L166.905 130.585L165.872 130.902L170.461 145.882Z" fill="#4C5366"/>
<path d="M168.007 146.497L169.04 146.181L164.452 131.198L163.419 131.515L168.007 146.497Z" fill="#4C5366"/>
<path d="M165.453 147.352L166.486 147.035L161.895 132.054L160.862 132.371L165.453 147.352Z" fill="#4C5366"/>
<path d="M162.884 148.194L163.918 147.877L159.33 132.895L158.297 133.212L162.884 148.194Z" fill="#4C5366"/>
<path d="M190.545 124.448L186.042 124.628L195.587 121.747L191.805 124.088L193.426 129.671C196.488 129.131 198.469 131.652 200.09 136.695L190.545 139.576C188.924 134.534 189.284 131.292 192.166 130.031L190.545 124.448Z" fill="#4C5366"/>
<path d="M200.09 128.41L202.611 127.51L200.45 120.306L206.754 118.325L209.095 125.529L211.616 124.808L208.194 134.173L200.09 128.41Z" fill="#4C5366"/>
<path opacity="0.1" d="M145.88 127.15L148.762 136.515L282.936 114.363L274.651 87.708L145.88 127.15Z" fill="black"/>
<path d="M400 194.867L334.804 214.858L309.59 201.891L374.786 181.9L400 194.867Z" fill="#858CA0"/>
<path opacity="0.2" d="M400 194.867L334.804 214.858L309.59 201.891L374.786 181.9L400 194.867Z" fill="black"/>
<path d="M167.312 266.186L232.508 246.195L246.015 221.341L180.999 241.332L167.312 266.186Z" fill="#858CA0"/>
<path opacity="0.1" d="M167.312 266.186L232.508 246.195L246.015 221.341L180.999 241.332L167.312 266.186Z" fill="black"/>
<path d="M60.1531 109.5C69.6983 141.378 96.1729 195.948 106.078 202.611C114.723 208.555 156.326 203.152 174.516 199.189C181.36 197.749 167.312 145.7 160.108 147.501C151.463 149.482 125.529 154.705 123.548 153.264C121.567 151.643 96.5331 119.045 78.5232 99.7748C62.1342 82.3051 56.5511 97.6136 60.1531 109.5Z" fill="#D3766A"/>
<path d="M156.146 151.823C156.146 151.823 169.833 136.335 179.739 130.391C192.886 122.467 207.294 121.026 213.417 120.846C226.204 120.306 257.542 127.87 257.001 137.415C256.461 145.88 224.764 136.515 224.764 136.515C224.764 136.515 258.622 140.837 256.101 150.923C253.579 161.008 217.38 148.041 217.38 148.041C217.38 148.041 251.959 153.264 247.816 163.169C244.575 170.734 211.256 160.828 211.256 160.828C211.256 160.828 240.973 165.511 238.091 173.435C234.849 182.26 203.512 174.876 203.512 174.876C192.526 193.786 179.559 198.289 169.833 200.27C167.312 200.63 156.146 151.823 156.146 151.823Z" fill="#D3766A"/>
<path d="M213.237 134.173C217.2 134.534 221.342 134.894 225.124 135.614C229.086 136.335 233.048 137.235 236.83 138.316C246.376 141.017 251.779 144.079 251.418 143.899C242.774 140.117 228.726 137.415 224.764 136.695C220.982 135.794 217.2 134.894 213.237 134.173C213.057 134.173 213.057 134.173 213.237 134.173Z" fill="#4C5366"/>
<path d="M210.356 148.221C215.398 148.942 220.441 149.302 225.484 150.202C230.527 151.103 235.209 152.363 240.072 153.624C240.432 153.804 240.252 153.804 239.892 153.804C234.849 152.724 230.167 152.183 225.124 151.283C220.441 150.382 215.398 149.302 210.356 148.221C210.356 148.221 210.356 148.401 210.356 148.221Z" fill="#4C5366"/>
<path d="M205.853 160.107C213.598 160.828 221.342 162.809 228.906 164.97C229.266 165.15 229.086 165.33 228.726 165.15C221.162 163.349 215.218 161.908 206.033 160.288C205.673 160.288 205.673 160.107 205.853 160.107Z" fill="#4C5366"/>
<path d="M170.194 208.555L158.127 146.42L124.448 151.643C111.481 136.155 85.7272 105.178 75.2814 95.8126C62.8546 84.8266 54.57 92.7509 58.7123 108.96C68.4376 146.24 97.7938 201.351 105.718 206.754C117.064 214.318 170.194 208.555 170.194 208.555Z" fill="#858CA0"/>
<path opacity="0.1" d="M147.321 154.885C148.942 155.425 150.743 155.245 152.364 155.425C155.966 155.966 157.587 161.189 154.345 163.17C150.743 165.331 146.601 165.691 142.819 164.25C139.217 162.809 136.155 159.388 136.875 155.245C137.596 151.643 141.198 150.743 144.079 152.544C145.16 153.444 146.06 154.525 147.321 154.885ZM143.899 148.582C146.421 149.662 149.122 149.662 151.103 148.402C151.463 148.041 151.823 147.681 152.004 147.321L143.899 148.582ZM126.249 151.283C127.69 152.364 129.311 152.904 131.292 152.724C132.553 152.544 133.453 151.463 133.633 150.203L126.249 151.283ZM164.43 179.018C163.71 179.379 163.17 179.739 162.81 180.639C161.369 183.701 163.35 186.943 166.412 188.924L164.43 179.018ZM110.221 191.085C109.68 193.066 109.5 194.867 108.059 196.488C106.619 198.109 104.818 199.009 103.737 200.99C102.837 202.611 104.277 205.133 106.078 204.773C112.202 204.052 117.605 198.109 117.064 191.805C116.884 187.663 111.301 187.123 110.221 191.085ZM104.097 173.615C103.017 176.137 103.197 178.838 102.476 181.36C101.756 183.701 100.855 186.042 99.7749 188.203C99.0545 189.824 100.495 192.346 102.476 191.445C105.718 190.004 108.24 188.023 109.86 184.782C111.301 181.9 112.742 177.217 111.481 174.156C110.041 171.454 105.538 170.013 104.097 173.615ZM77.2625 109.86C79.4237 110.221 81.4048 109.14 81.9451 106.979C83.0257 103.017 79.4237 99.0544 76.7222 96.7131C73.8406 94.1917 70.0585 92.0305 66.2765 93.2912C63.9352 94.0116 63.575 96.7131 65.0158 98.5141C66.6366 100.675 68.9779 102.116 70.7789 104.097C72.76 106.438 74.2008 109.32 77.2625 109.86ZM91.1301 125.169C92.5709 123.008 91.4903 119.766 90.4097 117.785C89.8694 116.704 88.9689 115.624 87.8883 115.083C86.4475 114.183 84.1063 114.363 83.2058 115.984C82.6655 117.064 82.6655 118.145 83.0257 119.225C83.2058 119.766 83.3859 120.306 83.566 120.846V121.026C83.566 121.026 83.566 121.026 83.566 121.207C84.1063 122.827 84.4665 124.809 85.7271 126.069C87.5281 127.69 89.8694 126.97 91.1301 125.169ZM86.8077 143.179C87.5281 143.359 88.2485 143.359 88.7888 143.179C89.8694 142.999 90.5898 142.098 91.1301 141.198C91.6704 140.297 91.8505 139.036 91.8505 138.136C91.8505 137.055 91.4903 136.155 90.95 135.254C90.7699 135.074 90.5898 134.714 90.4097 134.534C90.2296 134.354 89.8694 134.174 89.6893 133.994C88.9689 133.633 88.2485 133.453 87.348 133.633C85.9072 133.814 84.6466 134.894 84.2864 136.335C84.1063 137.416 83.7461 138.496 83.7461 139.577C83.7461 139.937 83.9262 140.297 83.9262 140.657C84.1063 141.198 84.2864 141.558 84.6466 141.918C85.1869 142.278 85.9072 142.999 86.8077 143.179ZM101.936 124.989C100.675 123.548 99.5948 122.287 98.3341 120.846C97.2535 120.666 96.1729 121.387 95.8127 122.647C95.6326 123.728 95.8127 124.809 95.8127 125.889C95.8127 126.249 95.8127 126.79 95.8127 127.33C95.8127 128.05 95.8127 128.771 95.9928 129.311C96.1729 130.752 97.7938 131.652 99.2346 131.652C100.675 131.472 101.936 130.572 102.296 129.131C102.656 127.69 102.296 126.429 101.936 124.989Z" fill="#2A3147"/>
<path d="M158.667 202.791C157.227 199.189 153.805 182.98 152.904 179.018C152.184 175.056 149.482 158.847 148.582 154.705C148.582 154.525 148.762 154.345 148.942 154.525C149.842 158.667 153.805 174.516 154.705 178.478C155.606 182.44 158.847 198.469 158.847 202.611C158.847 202.971 158.667 202.971 158.667 202.791Z" fill="#4C5366"/>
<path d="M147.501 210.175C141.918 210.535 136.515 210.535 130.932 210.535C125.349 210.535 119.766 210.355 114.363 209.635C111.661 209.275 108.78 208.734 106.258 207.474C103.737 205.853 101.936 203.692 100.315 201.35C96.8933 196.848 94.1918 191.985 91.4903 187.123C86.0874 177.397 81.4048 167.312 76.9023 157.226C72.3998 147.141 68.2575 136.875 64.4755 126.429C68.9779 136.515 73.6605 146.6 78.3431 156.506C83.0257 166.591 87.8883 176.497 92.9311 186.222C95.4525 191.085 98.3341 195.767 101.396 200.27C103.017 202.431 104.638 204.772 106.799 206.213C109.14 207.474 111.842 208.014 114.543 208.374C125.349 210.355 136.515 210.355 147.501 210.175Z" fill="#4C5366"/>
<path d="M67.7173 135.434C66.9969 134.714 66.2765 133.813 65.7362 132.913C65.1959 132.012 64.6556 131.112 64.2954 130.031C64.4755 130.572 64.8357 130.932 65.1959 131.292L66.0964 132.553C66.8168 133.633 67.3571 134.534 67.7173 135.434Z" fill="#4C5366"/>
<path d="M96.173 118.865C100.675 123.368 104.818 128.41 108.96 133.273C113.102 138.136 117.245 143.179 121.567 148.041L123.188 149.842C123.548 150.202 123.728 150.383 124.088 150.743C124.268 150.923 124.268 150.923 124.449 151.103C124.629 151.103 124.449 151.103 124.449 151.103H124.629C126.069 151.103 127.69 150.743 129.311 150.563L138.856 149.122C145.16 148.221 151.643 147.141 157.947 146.42L158.127 148.041L157.767 146.42C151.463 147.861 145.16 148.942 138.676 150.202C135.435 150.743 132.373 151.283 129.131 151.823C127.51 152.003 126.069 152.364 124.088 152.364C123.908 152.364 123.908 152.364 123.728 152.364C123.548 152.364 123.368 152.184 123.188 152.184C123.008 152.003 122.828 151.823 122.648 151.823C122.287 151.463 122.107 151.283 121.747 150.923C121.207 150.383 120.666 149.662 120.126 149.122C115.804 144.259 111.842 139.216 107.699 134.174L101.756 126.609C100.315 123.908 98.3342 121.207 96.173 118.865Z" fill="#4C5366"/>
<path d="M98.5143 119.406C99.2347 120.306 99.775 121.207 100.135 122.107C100.495 123.008 101.036 124.088 101.216 124.989C101.036 124.449 100.675 124.088 100.495 123.548L99.775 122.107C99.4148 121.207 98.8745 120.306 98.5143 119.406Z" fill="#4C5366"/>
</g>
<defs>
<clipPath id="clip0_1251_8071">
<rect width="400" height="266.186" fill="white"/>
</clipPath>
</defs>
</svg>
